<svg width="31" height="31" viewBox="0 0 31 31" fill="none" xmlns="http://www.w3.org/2000/svg">
<path d="M16.1459 10.3333H14.2084V18.0833L20.3438 21.7646L21.3125 20.1758L16.1459 17.1146V10.3333ZM22.3936 2.33792L28.3444 7.30438L26.691 9.28709L20.7364 4.32321L22.3936 2.33792ZM8.6064 2.33792L10.2623 4.32192L4.31032 9.28709L2.65698 7.30309L8.6064 2.33792ZM15.5 5.16667C12.4167 5.16684 9.45975 6.39185 7.27964 8.5722C5.09953 10.7526 3.87485 13.7097 3.87502 16.793C3.8752 19.8763 5.1002 22.8332 7.28055 25.0133C9.46091 27.1935 12.418 28.4181 15.5013 28.418C17.028 28.4179 18.5398 28.1171 19.9502 27.5328C21.3607 26.9484 22.6422 26.092 23.7217 25.0124C24.8012 23.9328 25.6574 22.6512 26.2416 21.2407C26.8258 19.8301 27.1264 18.3184 27.1263 16.7917C27.1262 15.265 26.8254 13.7532 26.2411 12.3428C25.6568 10.9323 24.8004 9.65077 23.7208 8.57129C22.6412 7.49181 21.3595 6.63554 19.949 6.05137C18.5385 5.46721 17.0267 5.16659 15.5 5.16667ZM15.5 25.8333C10.5142 25.8333 6.45836 21.7775 6.45836 16.7917C6.45836 11.8058 10.5142 7.75 15.5 7.75C20.4859 7.75 24.5417 11.8058 24.5417 16.7917C24.5417 21.7775 20.4859 25.8333 15.5 25.8333Z" fill="black"/>
</svg>
