<?xml version="1.0" encoding="UTF-8"?>
<!DOCTYPE svg PUBLIC "-//W3C//DTD SVG 1.1//EN" "http://www.w3.org/Graphics/SVG/1.1/DTD/svg11.dtd">
<!-- Creator: CorelDRAW 2017 -->
<svg xmlns="http://www.w3.org/2000/svg" xml:space="preserve" width="562px" height="1395px" version="1.1" style="shape-rendering:geometricPrecision; text-rendering:geometricPrecision; image-rendering:optimizeQuality; fill-rule:evenodd; clip-rule:evenodd"
viewBox="0 0 127.33 316.13"
 xmlns:xlink="http://www.w3.org/1999/xlink">
 <defs>
  <style type="text/css">
   <![CDATA[
    .fil6 {fill:#FEFEFE}
    .fil5 {fill:#009B4C}
    .fil0 {fill:black}
    .fil1 {fill:#0168B5}
    .fil8 {fill:#29A952}
    .fil3 {fill:#EEB2CE}
    .fil2 {fill:#FA5542}
    .fil7 {fill:#FFBB34}
    .fil4 {fill:white}
   ]]>
  </style>
 </defs>
 <g id="Layer_x0020_1">
  <metadata id="CorelCorpID_0Corel-Layer"/>
  <g id="_1252492620768">
   <rect class="fil0" x="29.3" y="169.77" width="55.44" height="103.91"/>
   <path class="fil1" d="M72.06 177.73c0,-2.72 -0.27,-5.39 -0.77,-7.96l-41.99 0 0 48.81c0.62,0.03 1.25,0.04 1.87,0.04 22.59,0 40.89,-18.3 40.89,-40.89z"/>
   <path class="fil2" d="M84.89 273.68l-0.15 -47.8c-4.71,-2.78 -9.82,-4.15 -15.69,-4.15 -17.48,0 -31.64,14.16 -31.64,31.64 0,7.82 2.68,14.79 7.38,20.31l40.1 0z"/>
   <path class="fil3" d="M56.17 28.71l0 -26.42c5.89,2.09 11.77,5.65 16.28,10.15 4.61,4.61 8.07,10.22 10.15,16.27l-26.43 0z"/>
   <rect class="fil2" width="42.44" height="42.44"/>
   <rect class="fil0" y="42.44" width="42.44" height="42.44"/>
   <rect class="fil4" y="42.44" width="42.44" height="42.44"/>
   <path class="fil5" d="M42.44 42.44l0 0 13.73 0 0 -13.73 26.43 0c1.5,4.39 2.29,9.02 2.29,13.73l-42.45 0zm13.73 -13.73l-13.73 0 0 -28.71c4.72,0 9.35,0.79 13.73,2.29l0 26.42z"/>
   <polygon class="fil3" points="42.44,42.44 56.17,42.44 56.17,28.71 42.44,28.71 "/>
   <rect class="fil6" y="42.44" width="42.44" height="42.44"/>
   <polygon class="fil3" points="10.63,42.44 0,63.66 21.22,63.66 "/>
   <polygon class="fil3" points="31.85,42.44 21.22,63.66 42.44,63.66 "/>
   <polygon class="fil3" points="21.22,63.66 10.63,84.89 31.85,84.89 "/>
   <polygon class="fil3" points="42.44,63.66 31.85,84.89 42.44,84.89 "/>
   <polygon class="fil3" points="0,63.66 0,84.89 10.63,84.89 "/>
   <path class="fil1" d="M42.44 0l0 42.44c-11.24,0 -22.04,-4.48 -30,-12.44 -7.96,-7.96 -12.44,-18.76 -12.44,-30l42.44 0z"/>
   <rect class="fil7" x="42.44" y="42.44" width="42.44" height="42.44"/>
   <rect class="fil3" x="42.44" y="84.89" width="42.44" height="42.44"/>
   <rect class="fil8" y="84.89" width="42.44" height="42.44"/>
   <rect class="fil2" x="42.44" y="127.33" width="42.44" height="42.44"/>
   <rect class="fil7" y="127.33" width="42.44" height="42.44"/>
   <rect class="fil1" y="273.68" width="42.44" height="42.44"/>
   <rect class="fil1" x="42.44" y="273.68" width="42.44" height="42.44"/>
   <polygon class="fil2" points="63.66,42.44 42.44,84.89 84.89,84.89 "/>
   <path class="fil1" d="M63.66 127.33l-21.22 0c0,-11.65 9.57,-21.22 21.22,-21.22 11.65,0 21.23,9.57 21.23,21.22l-21.23 0z"/>
   <circle class="fil1" cx="21.22" cy="148.55" r="21.22"/>
   <path class="fil7" d="M42.44 273.68l0 42.45c-23.27,0 -42.44,-19.18 -42.44,-42.45 0,0 0,0 0,0l42.44 0z"/>
   <path class="fil2" d="M42.44 316.13l0 -42.45c23.27,0 42.45,19.17 42.45,42.45 0,0 0,0 0,0l-42.45 0z"/>
   <path class="fil8" d="M42.44 273.68l0 28.31c-15.51,0 -28.3,-12.76 -28.3,-28.31 0,0 0,0 0,0l28.3 0z"/>
   <path class="fil8" d="M127.33 273.68l0 42.45c-23.21,0 -42.33,-19.06 -42.44,-42.24l0 42.24 42.44 0 0 -42.45 0 0z"/>
   <path class="fil4" d="M42.44 273.68l0 14.14c-7.75,0 -14.14,-6.38 -14.14,-14.14 0,0 0,0 0,0l14.14 0z"/>
   <path class="fil1" d="M63.66 84.89l21.23 0c0,11.65 -9.58,21.22 -21.23,21.22 -11.65,0 -21.22,-9.57 -21.22,-21.22l21.22 0z"/>
   <rect class="fil2" y="84.89" width="14.14" height="14.14"/>
   <rect class="fil2" x="14.14" y="99.02" width="14.14" height="14.14"/>
   <rect class="fil2" x="28.3" y="113.19" width="14.14" height="14.14"/>
   <polygon class="fil3" points="64.4,131.98 68.29,144.66 80.96,148.55 68.29,152.44 64.4,165.12 60.5,152.44 47.83,148.55 60.5,144.66 "/>
   <polygon class="fil3" points="76.1,136.84 69.93,148.55 76.1,160.26 64.4,154.08 52.69,160.26 58.86,148.55 52.69,136.84 64.4,143.02 "/>
   <rect class="fil0" y="169.77" width="29.3" height="103.91"/>
   <rect class="fil4" y="169.77" width="29.3" height="103.91"/>
   <rect class="fil1" y="270.46" width="29.3" height="3.22"/>
   <rect class="fil1" y="263.99" width="29.3" height="3.22"/>
   <rect class="fil1" y="257.52" width="29.3" height="3.22"/>
   <rect class="fil1" y="251.06" width="29.3" height="3.22"/>
   <rect class="fil1" y="244.59" width="29.3" height="3.22"/>
   <rect class="fil1" y="238.12" width="29.3" height="3.22"/>
   <rect class="fil1" y="231.65" width="29.3" height="3.22"/>
   <rect class="fil1" y="225.18" width="29.3" height="3.22"/>
   <rect class="fil1" y="218.71" width="29.3" height="3.22"/>
   <rect class="fil1" y="212.24" width="29.3" height="3.22"/>
   <path class="fil7" d="M29.3 273.68l15.49 0c-4.61,-5.49 -7.38,-12.58 -7.38,-20.31 0,-17.48 14.16,-31.64 31.64,-31.64 5.71,0 11.06,1.51 15.69,4.15l0 -56.11 -13.45 0c0.51,2.58 0.77,5.24 0.77,7.96 0,22.59 -18.3,40.89 -40.89,40.89 -0.62,0 -1.25,-0.01 -1.87,-0.04l0 55.1z"/>
  </g>
 </g>
</svg>
