<svg width="10" height="16" viewBox="0 0 10 16" fill="none" xmlns="http://www.w3.org/2000/svg">
<path d="M0.000344332 4.075C-0.00197941 4.13256 0.00747734 4.18998 0.0281346 4.24376C0.0487919 4.29753 0.0802145 4.34651 0.120476 4.38771C0.160737 4.42891 0.208989 4.46145 0.262273 4.48334C0.315556 4.50523 0.372749 4.516 0.430344 4.515H1.90034C2.14734 4.515 2.34234 4.315 2.37534 4.07C2.53434 2.9 3.33734 2.048 4.76834 2.048C5.99034 2.048 7.11034 2.659 7.11034 4.13C7.11034 5.262 6.44234 5.782 5.39034 6.574C4.19034 7.446 3.24034 8.464 3.30834 10.116L3.31334 10.502C3.31634 10.746 3.51534 10.942 3.75934 10.942H5.20434C5.45134 10.942 5.65034 10.742 5.65034 10.496V10.308C5.65034 9.03 6.13734 8.656 7.45034 7.661C8.53634 6.835 9.66734 5.918 9.66734 3.994C9.66734 1.301 7.39334 0 4.90334 0C2.64534 0 0.170344 1.053 0.00134426 4.075H0.000344332ZM2.77634 14.348C2.77634 15.298 3.53434 16 4.57634 16C5.66134 16 6.40834 15.298 6.40834 14.348C6.40834 13.363 5.66134 12.673 4.57534 12.673C3.53534 12.673 2.77634 13.363 2.77634 14.348Z" fill="white"/>
</svg>
