<svg width="28" height="28" viewBox="0 0 28 28" fill="none" xmlns="http://www.w3.org/2000/svg">
<path fill-rule="evenodd" clip-rule="evenodd" d="M19.1176 10.2349C19.1176 11.5811 18.5828 12.8721 17.6309 13.824C16.679 14.7759 15.388 15.3106 14.0418 15.3106C12.6956 15.3106 11.4046 14.7759 10.4527 13.824C9.50083 12.8721 8.96606 11.5811 8.96606 10.2349C8.96606 8.8887 9.50083 7.59766 10.4527 6.64577C11.4046 5.69388 12.6956 5.15912 14.0418 5.15912C15.388 5.15912 16.679 5.69388 17.6309 6.64577C18.5828 7.59766 19.1176 8.8887 19.1176 10.2349V10.2349ZM16.5797 10.2349C16.5797 10.908 16.3123 11.5535 15.8364 12.0294C15.3604 12.5054 14.7149 12.7728 14.0418 12.7728C13.3687 12.7728 12.7232 12.5054 12.2473 12.0294C11.7713 11.5535 11.5039 10.908 11.5039 10.2349C11.5039 9.56179 11.7713 8.91627 12.2473 8.44033C12.7232 7.96438 13.3687 7.697 14.0418 7.697C14.7149 7.697 15.3604 7.96438 15.8364 8.44033C16.3123 8.91627 16.5797 9.56179 16.5797 10.2349V10.2349Z" fill="black"/>
<path fill-rule="evenodd" clip-rule="evenodd" d="M14.0418 0.0833435C6.33302 0.0833435 0.0834961 6.33287 0.0834961 14.0417C0.0834961 21.7505 6.33302 28 14.0418 28C21.7506 28 28.0002 21.7505 28.0002 14.0417C28.0002 6.33287 21.7506 0.0833435 14.0418 0.0833435ZM2.62138 14.0417C2.62138 16.6938 3.52613 19.1352 5.04251 21.0741C6.10744 19.6756 7.48129 18.5423 9.05672 17.7626C10.6321 16.9829 12.3665 16.578 14.1243 16.5796C15.8594 16.5779 17.5719 16.9723 19.1315 17.7327C20.691 18.4932 22.0564 19.5995 23.1236 20.9675C24.2231 19.5255 24.9634 17.8424 25.2832 16.0575C25.6031 14.2726 25.4933 12.4371 24.963 10.7031C24.4326 8.96901 23.497 7.38615 22.2335 6.08547C20.9699 4.7848 19.4148 3.8037 17.6969 3.22335C15.9789 2.64299 14.1474 2.48008 12.354 2.74808C10.5605 3.01608 8.85668 3.7073 7.38341 4.76453C5.91015 5.82176 4.70981 7.21462 3.88172 8.82785C3.05364 10.4411 2.6216 12.2283 2.62138 14.0417V14.0417ZM14.0418 25.4621C11.4201 25.4661 8.87758 24.5642 6.84441 22.909C7.66278 21.7375 8.75205 20.7809 10.0195 20.1208C11.287 19.4606 12.6952 19.1164 14.1243 19.1174C15.5356 19.1163 16.9267 19.4519 18.1823 20.0963C19.4378 20.7408 20.5215 21.6754 21.3433 22.8227C19.2943 24.5316 16.7099 25.4659 14.0418 25.4621V25.4621Z" fill="black"/>
</svg>
